# xmcd CD database file
# Copyright (C) 1993-1998 Ti Kan
#
# Track frame offsets:
# 172
# 14302
# 29027
# 44015
# 58085
# 72752
# 89097
# 105210
# 121852
# 137417
#
# Disc length: 2047 seconds
#
# Revision: 0
# Processed by: cddbd v1.4b41PL1 Copyright (c) Steve Scherf et al.
# Submitted via: inCDius 1.1
#
DISCID=8607fd0a
DTITLE=Judy Fields - Eyes of Love
DYEAR=1900
DGENRE=
TTITLE0=So Hard on Me
TTITLE1=Eyes Of Love
TTITLE2=I Got On This Train To Ride
TTITLE3=Here Comes My Heartache Again
TTITLE4=The Darker Side Of You
TTITLE5=One Too Many Times
TTITLE6=Since I Lost You
TTITLE7=A Memory In His Mind
TTITLE8=You're Still On My Mind
TTITLE9=I Won't Have Time To Cry
EXTD=
EXTT0=
EXTT1=
EXTT2=
EXTT3=
EXTT4=
EXTT5=
EXTT6=
EXTT7=
EXTT8=
EXTT9=
PLAYORDER=
